<svg width="130" height="177.36800000000002" xmlns="http://www.w3.org/2000/svg" data-name="Componente 170 – 5">
 <g>
  <title>Layer 1</title>
  <path stroke="#000" id="svg_50" d="m75.7833,88.90632c-15.03159,11.8292 114.67395,91.44882 66.32493,61.87582c-48.34902,-29.573 -68.18451,-48.22674 -68.10703,-48.06318" fill="#7DD8B5"/>
  <path id="svg_6" d="m36,61.0175" opacity="NaN" stroke="#000" fill="#FFFF91"/>
  <path id="svg_7" d="m36,49.0175" opacity="NaN" stroke="#000" fill="#FFFF91"/>
  <path transform="rotate(-134 68.2201 22.901)" stroke="#000" id="svg_13" d="m55.28678,14.51562c8.03596,-34.46736 26.87912,-2.77549 26.87912,-2.74374c0,-0.03175 -1.68656,23.55119 -1.68656,23.58293c0,-0.03175 6.28584,50.59938 -1.78576,-18.17247c-8.0716,-68.77185 -31.44275,31.80064 -23.4068,-2.66672z" fill="#9ACEE6"/>
  <ellipse rx="0.33333" id="svg_15" cy="22.90633" cx="43.33333" stroke="#000" fill="#ffffff"/>
  <path transform="rotate(29 58.14186477661133,83.57799530029297)" stroke="#000" id="svg_2" d="m56.59995,87.8163c5.89512,-53.61514 -52.17904,36.22858 -50.00849,3.05507c2.17053,-33.1735 59.94754,-182.10544 72.92372,-18.92476l1.9889,30.2778c1.68431,15.99652 60.15946,31.10429 3.7787,68.00641c-8.42741,-12.99407 -31.6304,-55.60695 -28.68283,-82.41452z" fill="#083734"/>
  <path transform="rotate(43 23.7283 69.6922)" stroke="#000" id="svg_59" d="m40.28232,49.04174c-20.72652,40.17902 41.45304,84.82238 -20.72652,40.17902c-62.17956,-44.64336 41.45304,-80.35804 20.72652,-40.17902z" fill="#FABA6F"/>
  <ellipse transform="rotate(-25.5644 53.0995 39.2214)" stroke="#000" ry="20.83729" rx="23.93361" id="svg_14" cy="39.22139" cx="53.09952" fill="#ffffff"/>
  <ellipse transform="rotate(-19 52 37.573)" stroke="#000" ry="16.66667" rx="20.33333" id="svg_17" cy="37.57299" cx="52" fill="#000000"/>
  <ellipse stroke="#000" ry="11.66667" rx="14" id="svg_18" cy="36.573" cx="51" fill="#B8874D"/>
  <ellipse transform="rotate(-19 49.3901 36.6058)" stroke="#000" ry="3.26826" rx="9.07811" id="svg_21" cy="36.60576" cx="49.39015" fill="#000000"/>
  <path transform="rotate(174 95.2431 18.9783)" stroke="#000" id="svg_23" d="m118.71321,15.04778c8.43583,6.45984 -47.80249,21.40736 -47.80249,21.40736c0,0 2.60741,-36.05451 19.99013,-34.9278c17.38272,1.12671 20.85927,3.38011 21.29384,3.78515c-0.43457,-0.40504 -1.91731,3.27544 6.51852,9.73528z" fill="#84D3DB"/>
  <path transform="rotate(-136 101.122 37.4082)" stroke="#000" id="svg_24" d="m123.26418,33.52592c7.95856,6.38061 -45.09797,21.1448 -45.09797,21.1448c0,0 2.45988,-35.6123 18.85915,-34.49941c16.39926,1.11289 19.67911,3.33865 20.08909,3.73873c-0.40998,-0.40008 -1.80883,3.23526 6.14972,9.61588z" fill="#EDB6DC"/>
  <path id="svg_29" d="m49,102.23966" opacity="NaN" stroke="#000" fill="#999999"/>
  <path id="svg_30" d="m18.33333,134.23966" opacity="NaN" stroke="#000" fill="#999999"/>
  <path stroke="#000" id="svg_42" fill="#FFB27C"/>
  <path stroke="#000" id="svg_43" fill="#FFB27C"/>
  <path id="svg_49" d="m19.01385,130.95961c-0.0119,0 -0.0224,0.00587 -0.02885,0.01485c-0.00645,-0.00898 -0.01695,-0.01485 -0.02885,-0.01485c-0.01962,0 -0.03553,0.01591 -0.03553,0.03553c0,0.01962 0.01591,0.03553 0.03553,0.03553c0.0119,0 0.0224,-0.00588 0.02885,-0.01485c0.00645,0.00898 0.01696,0.01485 0.02885,0.01485c0.01963,0 0.03553,-0.01591 0.03553,-0.03553c0,-0.01963 -0.01591,-0.03553 -0.03553,-0.03553zm-0.00001,0.06464c-0.01606,0 -0.02911,-0.01305 -0.02911,-0.02911c0,-0.01607 0.01305,-0.02912 0.02911,-0.02912c0.01607,0 0.02912,0.01306 0.02912,0.02912c0,0.01606 -0.01306,0.02911 -0.02912,0.02911z" stroke="#000" fill="#AF84A3"/>
  <path transform="rotate(-84 89.2126 144.668)" stroke="#000" id="svg_57" d="m153.88362,132.033c23.24462,20.76571 -131.71795,68.81572 -131.71795,68.81572c0,0 7.18459,-115.90016 55.08206,-112.2783c47.89743,3.62191 57.4769,10.86566 58.67434,12.16771c-1.19744,-1.30205 -5.28305,10.52916 17.96155,31.29487z" fill="#619E73"/>
  <path transform="rotate(-124 99.057 133.547)" stroke="#000" id="svg_52" d="m140.35527,126.93196c14.84378,10.87171 -84.11377,36.02792 -84.11377,36.02792c0,0 4.58801,-60.67861 35.17485,-58.7824c30.58682,1.89622 36.70418,5.68863 37.46885,6.3703c-0.76467,-0.68168 -3.37371,5.51245 11.47007,16.38418z" fill="#306856"/>
  <path transform="rotate(-124 96.3906 128.547)" stroke="#000" id="svg_61" d="m132.09125,122.812c12.83184,9.42488 -72.71289,31.23323 -72.71289,31.23323c0,0 3.96615,-52.60335 30.40721,-50.9595c26.44106,1.64387 31.72926,4.93157 32.39029,5.52253c-0.66102,-0.59096 -2.91644,4.77885 9.9154,14.20374z" fill="#84D3DB"/>
  <path transform="rotate(124 96.5275 128.721)" stroke="#000" id="svg_58" d="m116.99296,143.57563c6.56321,-15.63607 -41.54628,-57.15709 -41.54628,-57.15709c0,0 2.0286,87.27002 15.55262,84.54282c13.524,-2.72719 16.22881,-8.18157 16.56691,-9.16197c-0.3381,0.9804 2.86355,-2.58769 9.42674,-18.22376z" fill="#9A8AAB"/>
  <path transform="rotate(119 98.8608 125.721)" stroke="#000" id="svg_51" d="m116.95443,142.23324c5.80256,-17.38085 -36.73123,-63.53505 -36.73123,-63.53505c0,0 1.79349,97.00819 13.75013,93.97667c11.95663,-3.03151 14.34796,-9.09452 14.64687,-10.18433c-0.29891,1.08981 2.53168,-2.87644 8.33423,-20.25729z" fill="#33666C"/>
  <path transform="rotate(-106 100.789 50.7416)" stroke="#000" id="svg_60" d="m125.93752,46.18227c9.03924,7.49326 -51.22179,24.83198 -51.22179,24.83198c0,0 2.79392,-41.82227 21.42002,-40.51533c18.62611,1.30695 22.35133,3.92084 22.81698,4.39068c-0.46565,-0.46984 -2.05445,3.79942 6.98479,11.29267z" fill="#FFF093"/>
  <path transform="rotate(180 97.7886 22.4083)" stroke="#000" id="svg_11" d="m121.97292,18.52365c8.69255,6.38438 -49.25722,21.15728 -49.25722,21.15728c0,0 2.68676,-35.63331 20.59848,-34.51977c17.91172,1.11354 21.49406,3.34062 21.94185,3.74093c-0.44779,-0.40031 -1.97566,3.23718 6.71689,9.62156z" fill="#9A8AAB"/>
 </g>

</svg>